<?xml version="1.0" encoding="utf-8"?>
<!-- Generator: Adobe Illustrator 25.4.1, SVG Export Plug-In . SVG Version: 6.00 Build 0)  -->
<svg version="1.1" id="Layer_1" xmlns="http://www.w3.org/2000/svg" xmlns:xlink="http://www.w3.org/1999/xlink" x="0px" y="0px"
	 viewBox="0 0 1920 1080" style="enable-background:new 0 0 1920 1080;" xml:space="preserve">
<style type="text/css">
	.st0{fill:#FFFFFF;}
</style>
<g>
	<path class="st0" d="M744.1,649.9c1.1,0.9,2.2,1.8,3.2,2.8c2.2,2.2,6.2,5,4,7.8c-3.1,3.9-5.5-1.1-7.5-2.8
		c-6.3-5.6-10.4-3.9-14.3,2.8c-8.3,14.3-4.2,35.3,9.1,45c8.7,6.3,17.9,4.5,29.1-6.7c0.8,16.7,7.6,30.3,16.2,43.1
		c20.9,30.8,51.9,45.2,86.8,52.2c48.2,9.7,95.2,3.5,140.8-13.8c34-12.9,57.4-37,72-70c4.9-11,10.9-11.6,19.3-3
		c6.5,6.6,14.4,4.2,21.9,1.7c8.1-2.8,12-9.6,14.9-17c0.4-1.1-0.2-2.1-1.4-2.1c-2.3,0-4.7-1.3-6.8,1.4c-3.4,4.3-7.7,11.4-13.1,4
		c-4.9-6.6-2.8-13.8,6.4-16.2c3.2-0.8,3.3-2.5,2.3-4.5c-1.8-3.7-4.9-6-9.2-6.2c-3.1-0.2-5.3,4.2-8.8,1.8c5.3-7.5,12.1-8.2,19-2.9
		c6.6,5.1,3.2,15.6,11.3,19.5c4.4-10.5,0.2-31.7-7.9-39.2c-7.3-6.9-17.2-5.3-25.6,0.7c-6.3,4.6-11.6,7.4-5.7,16.7
		c-5.5-2.9-9.9-1.8-14.9,1.1c7.5-10.7,2.6-20.7,0.3-30.7c-4.1-17.7-3.3-35.7-3-56.5c-6.5,8.7-10.6,16-16.4,21.9
		c-7.9,8.1-16.8,7.6-24.1-1.5c-6.9-8.5-6-19.3-9.5-30.9c-10.7,15.5-20.9,29.8-30.5,44.5c-5.8,8.9-13.2,19.3-23.1,17.9
		c-9.1-1.3-9.3-14.8-11.3-23.4c-4.9-21.5-3.8-42.8,6.1-63c1.7,0.9,1.9,2.6,2,4.2c-9,23.4-6.9,46.5,0.9,69.8
		c2.4,7.2,5.5,6.9,10.1,2.7c2.9-2.6,5.8-5.2,8.1-8.3c12.3-16.8,21.2-36,37.3-49.9c3.4-2.9-1.1-9.1,4.4-13.4
		c1.2,10.2,2.1,19.3,3.3,28.5c0.6,4.2,1.3,8.5,2.9,12.3c4.3,10.2,14,16.3,22.7,3.1c11-16.6,21.7-33,23.8-55.2
		c6,6.2,3.6,11.3,2.5,15.9c-7.6,30.9-6.5,61.5,2.6,94c7.4-13.1,13.9-24.7,20.4-36.2c2.9,9.4-5.7,15.2-6.5,24.1c2.1,0,3.8,0,5.4,0
		c18.2-0.4,24.5,3.9,31,21.1c0.5,1.3,1.2,2.6,1.6,3.9c4,13.7,4,13.7,18.8,10.8c-2-4.2-5.8-6.1-9.2-8.4c-6.3-4.2-7.7-7.4,0.3-11.9
		c19.9-10.9,39.4-22.6,59.2-33.8c5-2.8,9.6-6.1,13.9-10.6c-10.7-11-25.1-15.7-38-22.6c-13.4-7.2-27-14.1-40.7-20.7
		c-5.7-2.7-9.4-7.1-10.1-12.7c-0.7-5.5,5.7-6.6,9.4-8.8c26.9-16.5,54.7-31.4,84.1-43.1c6.9-2.7,13.4-6.2,22.4-10.5
		c-17.5-3.9-32.7-7.2-47.9-10.7c-17.2-4-34.6-7.6-50.8-15c-2.9-1.3-5.8-2.7-8.4-4.4c-2.2-1.4-6-2.7-4.1-6.2c1.9-3.6,5.1-1.4,7.4-0.1
		c9.7,5.4,20.4,8,30.8,11.5c8.3,2.8,12.8,2,14.7-7.9c1.3-6.7,5.2-13,8.3-20.5c-16.7-1.5-33.9,4.7-50.2-4
		c14.8-14.2,19.2-32.7,27.4-49c1.5-1.2,1.6-2.6,0.9-4.2c-1,0.6-1.9,1.2-2.9,1.8c-17.8,13.7-38.6,22.5-57.6,34.2
		c-6.1,3.8-8.5,8.1-7.9,15.6c1.2,13.8,1.9,27.8-2.9,41.2c-2,5.5,1.3,7.1,4.6,8.9c17,9.2,29.1,23.7,41.6,37.9c1.8,2.1,4.2,4.2,2,7.4
		c-1.5,2.1-3.7,2.1-5.7,1.2c-19.4-8.3-41.2-6.5-60.9-14c-3.7-1.4-8.1-1.9-12-9.1c23.3,9.4,45.7,9,68,15.4
		c-10-15.2-23-25.1-36.9-34.4c-6.3-4.2-6,4.6-10.9,3.8c1.6-6.6,1.2-12-7.9-10.1c-1.5,0.3-2.8-0.8-2.5-2.5c0.5-3,2.8-4.8,5.3-3.9
		c12.8,4.5,11.1-4.8,12.7-12.1c2.5-11.4,0.9-22.5-0.6-35.8c-13.8,12.8-19.2,28.5-25.6,45.4c-3.4-6.4-2.8-11.7-0.1-16.6
		c7.7-14.3,12.4-30.4,23.3-42.9c4.1-4.7-0.4-11.4,6-16.1c0.7,6.1,1.3,11.1,2,16.8c4.9-1.7,7-3.9,6.2-9.7
		c-1.6-11.6-5.2-22.8-7.1-34.3c-0.8-5-2.6-4.9-6.3-2.9c-9.4,5-14.9,14.1-22.6,21c-2.6,2.4,0.8,5.2,1.5,7.7c0.8,2.7,3.3,5.6-0.2,7.4
		c-4.2,2.1-5.2-2.2-6.7-4.8c-1.1-1.8-1.7-3.9-2.3-5.9c-9.2-31.6-29-57.4-47.2-84c-0.5-0.8-1.5-1.2-3.3-2.5
		c-2.9,21.4-1.1,41.8,0.2,62.4c-8.2-9.8-6.8-22.2-9.6-33.7c-1.6,8.2-6.5,16.1-3.4,24.1c1.9,5-1.8,5.2-3.2,7.5
		c-1.4-2.1-2.9-4.2-4.3-6.3c-10.6-6.4-21.1-12.9-31.7-19.3c-10.7-6.4-18.9-15.5-28.2-25.1c-3.3,9.5-0.3,17.8,1.2,25.8
		c3.2,17.1,9.3,32.4,28.1,38.4c5.6,1.8,3.8,8.6,7.3,12.1c-0.8,0.8-1.6,1.5-2.5,2.3c-22.3-16.3-44.3-33-66.9-48.9
		c-21.4-15-43.2-29.6-67.6-39.6c-3.1-1.3-6.8-4.1-9.6-1.4c-2.2,2.1-0.7,6.1,0,9.2c3.1,13.1,5.5,26.4,5.8,39.9
		c0.1,3.1-0.4,6.5,2.1,9.1c1.9,2,3.1,4.2,0.3,6.3c-1.3,1-3.3,1.8-4.8,1.6c-3.3-0.5-2.9-3.7-3.1-6c-1.7-15.5-2.1-31.2-5.4-46.5
		c-1.6-7.3-2.6-14.6-3.8-22c-0.3-2-1.1-4.6,1.2-5.8c2.6-1.4,3.9,0.9,4.6,2.9c0.7,2.1,2.1,2.4,3.8,3c37.4,12.7,68.9,35.6,100.7,58.1
		c1.7,1.2,3.6,2.3,5.4,3.4c0.8,0.6,2.1,1.8,2.3,1.6c1.6-1.4,1.1-2.9-0.1-4.3c-3-11-5.9-21.9-5.5-33.5c0.2-5.5,2-10.6,6.4-12.5
		c5.3-2.4,6.5,4.1,8.9,7.1c13.7,17.3,34,25.2,52.6,37.9c1.8-9.8,4-18.5,4.8-27.4c0.9-10.6,7.5-19.7,7.2-30.7c-0.1-4,3.7-4.9,6.8-1.5
		c4.5,5,9.4,9.9,13.1,15.5c14.9,22.8,31.1,44.9,41.7,71.7c8.1-9.5,16.2-18,27-23.3c6.8-3.3,10.7-2.5,11.3,5.8
		c1.2,14.3,9.8,27.6,4.4,44c22.3-12.3,44.2-22.4,61.8-39.4c2.4-2.3,5.2-7.7,9.3-4.7c4,2.9,1.8,7.9,0,11.7
		c-7.3,16.1-14.3,32.4-22.4,48.1c-4.2,8.1-1.3,10,5.9,9.8c9.6-0.2,19.1-0.9,28.7-1.5c7.5-0.4,8.9,2.3,5.1,8.7
		c-4.6,7.5-8.5,15.4-11.3,23.9c-1.6,5-2.1,7.9,4.9,9.1c16.4,2.8,32.7,6.7,48.9,10.3c4.3,1,9.4,1.6,10,7.7c0.6,5.9-4.4,6.9-8,8.5
		c-20.8,9.8-41.8,19.2-62.7,28.9c-3.8,1.8-7.4,4-12.1,6.5c7.4,4.7,13.6,9.1,20.2,12.8c8.8,4.9,8.7,10.2,3.4,18.1
		c-3.4,5.2-12.9,8.7-10,15c2.1,4.5,10.8,5.9,16.3,9c5.6,3.1,11.2,6.2,16.3,10c9.8,7.3,9.8,12.5,0.5,20.1
		c-12.7,10.4-27.8,17-41.6,25.7c-8.3,5.2-16.9,10.1-26.6,15.8c2.5,2,4.4,3.1,5.8,4.6c3.1,3.2,9.4,4.8,8.2,10.1c-1.4,6-8,6.2-13,7.7
		c-1.7,0.5-3.6,0.8-5.3,0.5c-7.2-1.3-9,2.7-10.5,8.8c-3.7,16-13.2,26.1-30.3,28.5c-10.2,1.5-17.7-2.8-24.6-10.4
		c-14.2,32.9-35.1,59.2-67.5,73.2c-63.1,27.3-127.7,33.3-192.8,7.1c-31.8-12.8-54.1-35.8-65.8-68.4c-1.8-5-2.1-8-9.4-5.4
		c-10.8,3.9-21.2,0.7-28.6-8.8c-9.8-12.8-14.2-26.8-7.5-42.6c3.7-8.7,7.7-16.8,19.8-16.1c-13.2-6.3-27.2-7.3-40.5-11
		c-6.8-1.9-13.5-4.5-20.4-5.8c-7.4-1.3-6.4-7.9-8-12.2c-1.8-5,4.3-5.6,7.5-7c26.7-10.9,53.5-21.6,82.5-33.3
		c-25.8-11.5-48.5-24.9-71.6-37.5c-13.5-7.4-23.9-17.6-33.1-29.4c-1.4-1.8-2.9-3.2-1-5.4c1.5-1.8,3.5-1.9,5.8-1.8
		c23.5,0.4,47.1,2.2,70-5.6c4.8-1.6,6.7,2.8,9.8,4.5c7.7,4.2,8.6,4.3,13.3-1.7c1.5-1.9,3.8-1.6,5.8-2c13.3-2.6,26.9-4.1,42.3-11.3
		c-14.8-1.9-26.3-5.1-38.7-3.2c0.3-6.6,5.8-5.5,9.3-8.8c-23.5-12.2-47.3-3-71.5-1.4c12.7,6,25.5,12.1,38.2,18.1
		c-2.1,3.9-4.5,3.2-6.3,2.7c-15.6-4.8-29.8-13-44.3-20.2c-3.3-1.6-4-5.1-2.1-8.3c2-3.3,5.9-5.8,9-3.8c8.2,5.4,16.8,2.2,24.9,1.5
		c10.9-1,21.8-1.9,33-1.3c-15.4-33-38.9-60.9-54.2-93.5c5.1,5,15.3,5.4,13.8,15.9c-0.3,2.3,3.2,5.3,5.1,7.9
		c10.9,15.4,21.6,30.8,30.3,47.5c7.2,13.8,19.1,24.2,28.2,36.6c0.7,1,2.5,1.4,3.9,1.5c18.6,1.6,36.9,6.8,55.8,0.3
		c18.1-6.2,37.2-8.9,56.3-10c2.2-0.1,4.9-1.2,7.7,2.9c-21.7,4.2-43.4,5.3-64.1,12.5c2.3,2.9,7,0.6,8.2,7.6
		c-29.3-8.7-53.6,9.3-82.7,12c10,6.6,19.8,7.8,29.3,9.3c10.5,1.8,21.2,1.9,31.9,2.7c1.8,0.1,4.2,0.8,5.2-0.1
		c10.7-8.6,19.9,5.1,30.2-0.5c-0.3,4.7-2.2,5.1-3.9,4.9c-19.3-2.2-34.1,6.9-47.8,19c-9.3,8.2-19,16.1-28.2,24.5
		c-2.3,2.1-6,3.3-3.3,9.1c3,6.3,6.6,3.1,9.2,2.5c28.3-7,55.3-17.3,80-33.2c8.6-5.5,16.5-12.4,26.3-15.5c3.7-1.2,2.1-5,4.7-6.3
		c2.6,1.5,2,4.1,2.2,6.5c0,3.9,0,7.8,0,11.7c12.1-21.5,32.3-28.1,55.7-31.2c-1.8,5.8-6.1,5.8-9.5,6.6c-16.9,4.1-30.8,12-39.6,27.8
		c-2.7,4.9-7.1,10.5-12.6,2.2c-1.7-2.5-3.4-1.5-3.7-0.1c-1.2,4.9-10.7,8.3-2.7,15.1c0.8,0.7,0.1,4.1-0.7,5.9
		c-13,29.4-9.9,57.9,4.7,85.8c0.2,4.2,4.1,5.8,6,8.7c2.8,3,1.6,4.6-1.9,3.9c-4-0.9-6.2-4.5-8.2-7.9c-16.9-28.5-19-58.4-8-89.8
		c-17.2,19.9-30.8,43.1-56.1,54.6c26.4-23.1,47.9-49.8,63.4-81.2c3.2-1.6,10.4,0.2,6.1-7.6c-3.1,1.5-6,3.1-8.1,5.9
		c-23.8,14.7-47.4,30.2-74.9,37.1c-31,7.8-59.3,20.5-84.7,40c-8.5,6.5-18.8,5.6-28.8,4.5c-4.9-0.5-8.4,0.2-10.2,5.3
		c7.8,4.4,16.7,5.2,25.2,7c13.2,2.6,26.5,4.9,39.1,9.6c4.3,1.6,7.8-1.2,11,0c3,1.1,6.3,4.6,5.7,8.2c-0.8,4.7-4.8,2.8-7.8,2
		c-4.1-1.1-8.2-2.4-12.2-3.6c-0.9-0.1-1.7-0.1-2.6-0.2C743.8,648.3,743.9,649.1,744.1,649.9z M668.2,513.3
		c5.7,6.8,10.8,12,17.3,15.7c22.1,12.7,44,25.8,67.1,36.6c8.2,3.8,16,9.3,21.3-3.8c1.1-2.6,4.6-4.2,7-6.4
		c12.9-11.4,25.8-22.7,39.9-33.2c-11.5-1.5-22.8-3.4-33.8-3.2c-17.2,0.4-32.7-3.4-47.5-11.5c-1.9-1-3.5-2.7-5.8-1.9
		C713,512.8,690.7,507.5,668.2,513.3z M1185.9,572.8c8.4-3.4,14.5-9.2,17.7-16.6c2.5-5.8-4.7-6.8-8-9.3c-4.5-3.4-9.6-5.9-14.4-8.9
		c-2.6-1.6-4.7-2.2-7.6-0.3c-5.9,3.9-12.2,7.2-18.2,10.8c-3.1,1.8-5.8,5.2-2.1,7.4C1163.8,562.1,1175.1,567.3,1185.9,572.8z
		 M731,597.5c-10.7,4.5-21.4,8.9-33.7,14.1C713.3,615.2,722.8,607.6,731,597.5z"/>
	<path class="st0" d="M1044.8,476.4c-28.8-3.4-53.9-14-76-33.6c-10.3-9.1-24.8-13.7-38.3-18.3c-18.2-6.2-35.2-14.4-48.6-28.9
		c14.5,3.1,25.2,14.3,39.3,18.7c14.4,4.5,28.6,9.9,41.8,18.5c0-3.8,0.2-7,0-10.1c-0.7-13.1,0.1-13.8,13.6-13.3
		c6.6,0.2,12.3,3,18.1,5.8c15.1,7.2,29.3,16,43,25.4c3,2.1,10,3.7,7.2,8.3c-2.2,3.6-6.6-1.6-9.7-3.4c-13.6-7.6-27-15.6-40.5-23.4
		c-2.1-1.2-4.3-2.5-6.7-3.3c-6.5-2.4-16.5-7.1-19.2-1.2c-2.5,5.5-0.9,15.8,6.1,22.2c14.1,13,29.9,22.5,48.5,27.5
		C1030.9,469.4,1039.3,469.5,1044.8,476.4z"/>
	<path class="st0" d="M1059.3,622.4c0.6,28.3,0.2,54-20.5,73.8c-20,19.1-44.1,21.1-69.5,13.4c-12.3-3.8-23.5-10.1-33-18.9
		c-2.2-2.1-5.6-5.3-3.1-8.1c3.5-3.9,5.2,1.6,7.1,3.2c20.4,16.2,42.6,25.8,69,19c27-7,41.6-26.9,43.4-57.4
		C1053.4,635.2,1054.7,629.7,1059.3,622.4z"/>
	<path class="st0" d="M1062.5,550c6.1-22.2,11.8-42.7,17.9-64.9c3.8,10.4-10.9,64.7-19.3,75.3c-3-9.8-11.5-16.5-12.9-26.8
		c-1.3-9.7-3.3-19.2-5.2-30c-5.4,11.4-10.6,22-17.1,31.9c-5.2,7.8-11.5,14.5-19.8,19c-1.5,0.8-3.7,1.2-4.8-0.5
		c-1.3-2.1,0.7-2.8,2.2-3.8c22.8-15,30.9-39.6,40.6-63.1c0.9-2.2,0.4-6.1,3.3-5.9c3.7,0.3,3,4.1,2.7,6.8
		c-1.5,14.9-1.2,29.8,2.8,44.3C1054.6,538.2,1056.4,544.2,1062.5,550z"/>
	<path class="st0" d="M1048.4,376c-2.2,28.3,3.3,55.3,6.7,82.6c-14.6-32.9-14.7-67.7-15.1-102.5c16,7.4,41.9,77.6,33.8,94.4
		c-1.2-13.2-2.1-26.5-8.4-38.6C1059.3,400.2,1054,388,1048.4,376z"/>
	<path class="st0" d="M783.4,649c2.8,7.6,5.1,15.5,8.4,22.9c7.9,17.9,22.2,24,40.9,18.2c12-3.7,21.2-11.1,29.3-20.4
		c1.5-1.8,2.7-5,5.7-2.6c2.6,2.1,0.8,4.7-0.6,6.7c-11.8,16.2-27.8,25.8-47.8,25.7c-17.4-0.1-28.4-10.8-35.2-26.5
		c-6-14-8.5-28.5-7.2-43.7c0.3-3.4-0.3-7.4,4.2-8.9C783,629.7,778.9,639.7,783.4,649z"/>
	<path class="st0" d="M832.5,376.3c-23.9-1.1-46.5-10.1-70.2-12c-14.5-1.2-29-2.2-43.5-3.5c-2.8-0.2-7.6,1.9-7.6-3
		c0-5.6,5.2-3.6,8.3-3.5c32.8,0.3,64.9,6,96.8,13.1c8.3,1.8,16.8,2.3,25.3,3.5c2.5,0.4,6.8-1.5,6.6,2.8c-0.2,3.5-4.5,2.4-7.1,2.6
		C838.2,376.4,835.4,376.3,832.5,376.3z"/>
	<path class="st0" d="M945.5,677.2c-1-0.6-2.5-1.1-3-2.2c-0.9-2,0.7-3.5,2.2-4.2c4.1-2.1,8.4-3.8,12.5-5.8
		c26.2-12.5,51.8-26,78.7-37.1c3.3-1.4,6.5-2.9,9.8-4.2c2.3-0.9,5.4-1.8,6.7,0.8c1.7,3.3-1.6,4.9-3.8,6.6c-0.3,0.2-0.6,0.4-0.9,0.5
		c-32,12.6-62.2,28.9-93.7,42.7C951.4,675.5,948.6,676.2,945.5,677.2z"/>
	<path class="st0" d="M783.4,649c-4.5-9.2-0.5-19.2-2.3-28.7c-0.2-6.8,1.3-9.8,8.9-6c26.3,13,52.8,25.5,79.2,38.2
		c1.6,0.8,3.1,1.6,4.7,2.5c2.1,1.3,4.9,2.7,3.1,5.6c-1.6,2.5-3.7,0.2-5.5-0.6c-19.6-9-39.2-17.9-58.7-27
		c-9.3-4.3-18.4-8.9-29.3-14.1C783.4,629.7,783.4,639.3,783.4,649z"/>
	<path class="st0" d="M770.5,397.3c37.6,5,67.8,21.6,92.1,49.1c1.7,1.9,5.9,4,3.5,6.7c-3.2,3.5-5.7-1.3-7.5-3.1
		c-17.7-18.5-37.9-33.1-62.5-40.8c-5-1.6-10.2-2.7-15.4-3.9C776.5,404.4,772.4,403.5,770.5,397.3z"/>
	<path class="st0" d="M896.5,659.7c-2-2.9-5.9-4.5-6-8.7c3.7,4.8,6,0.3,8.4-1.5c25.1-18.8,45-42,58.6-70.5c0.7-1.5,1.8-2.7,3.3-4.8
		c4.4,5.7,0.3,9.5-1.5,12.9c-14.3,27.6-34.1,50.5-59.9,68C897.4,656.4,895.6,657,896.5,659.7z"/>
	<path class="st0" d="M965.7,463c-35.2-3.9-81.7-31.6-85.8-59.2c11.8,16.6,23.4,29.4,38.9,38C933.8,450.2,950.2,455.7,965.7,463z"/>
	<path class="st0" d="M764.4,403.3c2.2,34.7,26.2,50.5,53.2,63.7c-6.9,3.6-9.8,2.7-25.2-8.2C767.8,441.6,759.8,426.6,764.4,403.3z"
		/>
	<path class="st0" d="M899,527.2c-0.2-2.3,0.4-4.9-2.2-6.5c8-21.5,21.4-37.1,45.1-41.2c6.7-1.1,12.9-0.2,16.9,8
		c-19.5-6.6-36.2,0.1-48.8,18.1C905.3,512.4,902.3,519.9,899,527.2z"/>
	<path class="st0" d="M999.5,470.8c-11.3,25.4-6.3,49.3,7.4,73.6C986.9,535.1,982.5,487.3,999.5,470.8z"/>
	<path class="st0" d="M872.8,754.4c3-7,5-12.5,7.7-17.7c6.3-11.7,13.9-12.5,23.3-2.9c5.5,5.6,8.9,12.3,10,21.1
		c-6.7-1.8-6.3-7.7-8.8-11.4c-3.3-5.1-6.7-11-13.2-10.9c-6.1,0.1-7.1,7-9.7,11.4C880.3,747.6,880.1,752.4,872.8,754.4z"/>
	<path class="st0" d="M1007.8,356.3c1.4,2.1,2.9,4.2,4.3,6.3c-0.8,12.7-5.2,25-4.3,37.9c0.2,2.7-0.5,6.7-3.8,6.6
		c-4.3-0.1-2.7-4.4-2.3-6.7c1.6-11.2,3.6-22.3,5.4-33.5C1007.4,363.4,1007.5,359.8,1007.8,356.3z"/>
	<path class="st0" d="M975.9,548.5c-0.1-1.7-0.3-3.3-2-4.2c2.6-7.5,5.3-15,15.3-20.5C984,533.5,979.9,541,975.9,548.5z"/>
	<path class="st0" d="M982,390.6c0.8-0.8,1.6-1.5,2.5-2.3c4.6,3,9.3,6.1,13.9,9.1C991.1,398.1,986.3,394.7,982,390.6z"/>
</g>
</svg>
