<?xml version="1.0" encoding="utf-8"?>
<!-- Generator: Adobe Illustrator 25.4.1, SVG Export Plug-In . SVG Version: 6.00 Build 0)  -->
<svg version="1.1" id="Layer_1" xmlns="http://www.w3.org/2000/svg" xmlns:xlink="http://www.w3.org/1999/xlink" x="0px" y="0px"
	 viewBox="0 0 1920 1080" style="enable-background:new 0 0 1920 1080;" xml:space="preserve">
<style type="text/css">
	.st0{fill:#AD342B;}
	.st1{fill:#AC3B2F;}
</style>
<g>
	<g>
		<path class="st0" d="M744.08,649.92c1.07,0.92,2.2,1.78,3.19,2.79c2.2,2.24,6.21,4.97,3.99,7.79c-3.08,3.9-5.5-1.06-7.47-2.82
			c-6.27-5.6-10.4-3.9-14.29,2.8c-8.3,14.29-4.17,35.34,9.12,44.95c8.71,6.29,17.91,4.47,29.1-6.73c0.81,16.73,7.57,30.3,16.22,43.1
			c20.87,30.85,51.93,45.19,86.85,52.2c48.16,9.67,95.15,3.54,140.75-13.76c33.96-12.88,57.35-37.01,71.98-70.03
			c4.88-11.01,10.87-11.56,19.33-2.96c6.48,6.59,14.42,4.25,21.87,1.71c8.12-2.77,11.97-9.58,14.86-17.05
			c0.41-1.07-0.17-2.12-1.42-2.12c-2.31,0.01-4.66-1.27-6.75,1.42c-3.36,4.32-7.66,11.37-13.09,4c-4.87-6.61-2.85-13.84,6.45-16.19
			c3.2-0.81,3.26-2.55,2.27-4.52c-1.84-3.67-4.86-5.96-9.23-6.18c-3.11-0.15-5.27,4.24-8.81,1.77c5.27-7.51,12.13-8.19,19.03-2.93
			c6.64,5.07,3.15,15.62,11.34,19.52c4.44-10.47,0.18-31.65-7.87-39.24c-7.33-6.91-17.18-5.35-25.58,0.71
			c-6.35,4.59-11.56,7.42-5.72,16.67c-5.5-2.88-9.95-1.78-14.94,1.08c7.49-10.66,2.58-20.67,0.26-30.68
			c-4.1-17.7-3.31-35.73-2.98-56.5c-6.54,8.67-10.56,15.99-16.36,21.92c-7.95,8.13-16.77,7.6-24.07-1.47
			c-6.89-8.55-6.03-19.32-9.53-30.87c-10.69,15.5-20.93,29.76-30.5,44.46c-5.82,8.93-13.25,19.28-23.06,17.9
			c-9.07-1.28-9.3-14.78-11.26-23.36c-4.9-21.48-3.84-42.78,6.13-63.01c1.68,0.94,1.89,2.57,1.99,4.25
			c-9,23.39-6.89,46.52,0.93,69.78c2.43,7.23,5.5,6.86,10.1,2.71c2.87-2.59,5.83-5.24,8.1-8.34c12.27-16.75,21.2-35.95,37.35-49.87
			c3.38-2.91-1.06-9.09,4.45-13.39c1.17,10.15,2.07,19.33,3.33,28.46c0.58,4.18,1.31,8.49,2.92,12.35
			c4.29,10.23,14.03,16.27,22.72,3.1c10.96-16.6,21.67-33.05,23.76-55.23c5.97,6.15,3.62,11.29,2.49,15.9
			c-7.58,30.91-6.49,61.53,2.59,94.02c7.41-13.1,13.93-24.65,20.45-36.19c2.87,9.36-5.72,15.22-6.47,24.1c2.06,0,3.76,0.03,5.45,0
			c18.24-0.36,24.51,3.91,31,21.13c0.5,1.33,1.2,2.59,1.6,3.94c3.98,13.71,3.97,13.71,18.75,10.8c-1.98-4.19-5.79-6.14-9.19-8.41
			c-6.31-4.22-7.74-7.44,0.35-11.87c19.91-10.91,39.41-22.56,59.15-33.81c4.98-2.84,9.56-6.09,13.9-10.61
			c-10.68-11.04-25.05-15.73-38.03-22.64c-13.43-7.15-26.99-14.1-40.71-20.66c-5.69-2.72-9.42-7.1-10.09-12.65
			c-0.67-5.54,5.74-6.6,9.41-8.84c26.94-16.45,54.67-31.37,84.05-43.11c6.86-2.74,13.43-6.22,22.44-10.45
			c-17.49-3.88-32.7-7.17-47.86-10.66c-17.24-3.97-34.6-7.62-50.85-14.97c-2.9-1.31-5.77-2.74-8.45-4.43
			c-2.24-1.41-5.98-2.66-4.11-6.2c1.88-3.58,5.11-1.36,7.43-0.08c9.72,5.35,20.38,8.04,30.78,11.53c8.29,2.78,12.83,1.97,14.67-7.85
			c1.27-6.74,5.16-12.99,8.31-20.48c-16.68-1.47-33.9,4.66-50.17-3.98c14.82-14.23,19.15-32.73,27.45-49.05
			c1.46-1.17,1.59-2.62,0.88-4.24c-0.96,0.59-1.92,1.19-2.87,1.78c-17.84,13.67-38.58,22.47-57.57,34.22
			c-6.12,3.78-8.51,8.07-7.87,15.59c1.19,13.77,1.9,27.83-2.86,41.16c-1.98,5.54,1.27,7.07,4.64,8.89
			c16.99,9.19,29.09,23.72,41.56,37.85c1.84,2.08,4.17,4.22,1.96,7.37c-1.47,2.09-3.67,2.12-5.73,1.24
			c-19.45-8.35-41.23-6.52-60.87-14.02c-3.73-1.42-8.08-1.85-12-9.07c23.35,9.4,45.71,9.05,68.04,15.43
			c-10.01-15.19-23.02-25.11-36.92-34.36c-6.29-4.19-5.98,4.61-10.95,3.78c1.6-6.57,1.15-12.02-7.89-10.13
			c-1.52,0.32-2.78-0.75-2.51-2.51c0.47-3,2.84-4.75,5.33-3.86c12.76,4.52,11.06-4.8,12.67-12.13c2.51-11.43,0.92-22.55-0.6-35.75
			c-13.75,12.8-19.23,28.49-25.55,45.37c-3.37-6.43-2.76-11.68-0.1-16.64c7.7-14.33,12.43-30.38,23.26-42.85
			c4.05-4.67-0.36-11.39,6-16.14c0.71,6.08,1.3,11.07,1.96,16.75c4.91-1.74,7.04-3.85,6.22-9.7c-1.61-11.62-5.17-22.78-7.13-34.27
			c-0.85-4.95-2.63-4.88-6.28-2.93c-9.38,5-14.9,14.12-22.56,20.97c-2.62,2.35,0.75,5.21,1.54,7.7c0.85,2.68,3.31,5.62-0.19,7.4
			c-4.2,2.14-5.21-2.22-6.69-4.76c-1.06-1.81-1.72-3.9-2.32-5.93c-9.22-31.65-29.02-57.36-47.16-83.99
			c-0.52-0.76-1.51-1.2-3.27-2.54c-2.86,21.35-1.12,41.77,0.16,62.39c-8.24-9.8-6.76-22.23-9.58-33.66
			c-1.57,8.19-6.51,16.13-3.41,24.11c1.94,4.99-1.83,5.18-3.17,7.47c-1.43-2.11-2.86-4.21-4.29-6.32
			c-10.56-6.43-21.09-12.92-31.7-19.27c-10.67-6.38-18.93-15.55-28.19-25.1c-3.3,9.52-0.35,17.78,1.16,25.79
			c3.22,17.06,9.35,32.42,28.1,38.44c5.63,1.81,3.81,8.65,7.26,12.08c-0.82,0.77-1.64,1.55-2.46,2.32
			c-22.28-16.33-44.3-33.03-66.91-48.9c-21.42-15.03-43.23-29.57-67.63-39.57c-3.11-1.27-6.78-4.12-9.64-1.41
			c-2.24,2.12-0.72,6.07,0,9.17c3.08,13.14,5.47,26.37,5.78,39.93c0.07,3.11-0.37,6.47,2.12,9.1c1.88,1.99,3.09,4.24,0.3,6.27
			c-1.31,0.95-3.26,1.77-4.77,1.56c-3.32-0.47-2.86-3.68-3.1-5.95c-1.67-15.51-2.06-31.16-5.43-46.49
			c-1.59-7.26-2.61-14.65-3.75-22.01c-0.31-2.01-1.1-4.56,1.2-5.77c2.62-1.38,3.93,0.87,4.58,2.87c0.67,2.08,2.09,2.38,3.83,2.96
			c37.42,12.67,68.91,35.65,100.72,58.06c1.73,1.22,3.59,2.26,5.39,3.39c0.8,0.57,2.13,1.78,2.32,1.62c1.63-1.36,1.11-2.88-0.1-4.3
			c-2.99-10.96-5.93-21.86-5.48-33.47c0.21-5.52,1.95-10.56,6.38-12.53c5.34-2.38,6.53,4.13,8.92,7.14
			c13.72,17.26,33.95,25.23,52.58,37.92c1.78-9.79,4.05-18.54,4.8-27.42c0.9-10.64,7.48-19.72,7.23-30.7
			c-0.09-4,3.73-4.91,6.75-1.53c4.5,5.04,9.41,9.86,13.07,15.48c14.88,22.83,31.09,44.91,41.73,71.72
			c8.1-9.49,16.19-18.04,27.03-23.33c6.83-3.34,10.65-2.45,11.33,5.79c1.18,14.28,9.76,27.63,4.4,43.99
			c22.3-12.27,44.16-22.37,61.76-39.42c2.41-2.34,5.16-7.7,9.31-4.71c3.98,2.87,1.77,7.9,0.03,11.73
			c-7.29,16.11-14.27,32.39-22.41,48.07c-4.21,8.1-1.26,9.95,5.87,9.78c9.58-0.23,19.14-0.94,28.71-1.49
			c7.53-0.43,8.94,2.3,5.05,8.72c-4.57,7.54-8.53,15.42-11.31,23.85c-1.63,4.96-2.13,7.87,4.92,9.06
			c16.43,2.77,32.66,6.67,48.93,10.34c4.35,0.98,9.4,1.59,10.01,7.72c0.59,5.9-4.42,6.85-7.98,8.52
			c-20.83,9.76-41.81,19.21-62.69,28.86c-3.81,1.76-7.4,3.98-12.12,6.55c7.38,4.7,13.57,9.09,20.16,12.75
			c8.77,4.86,8.69,10.16,3.45,18.13c-3.43,5.23-12.89,8.72-10.03,14.98c2.07,4.53,10.77,5.91,16.33,9.02
			c5.56,3.11,11.18,6.24,16.27,10.03c9.75,7.28,9.79,12.53,0.52,20.1c-12.73,10.4-27.82,17-41.64,25.66
			c-8.34,5.23-16.9,10.1-26.57,15.85c2.54,1.99,4.38,3.11,5.82,4.61c3.05,3.2,9.44,4.76,8.22,10.12c-1.37,6.02-8.01,6.21-12.99,7.74
			c-1.67,0.51-3.6,0.81-5.28,0.5c-7.2-1.3-9.03,2.7-10.46,8.81c-3.74,15.97-13.24,26.09-30.28,28.55
			c-10.23,1.48-17.7-2.75-24.57-10.36c-14.17,32.91-35.11,59.17-67.46,73.17c-63.08,27.3-127.69,33.31-192.85,7.13
			c-31.85-12.79-54.1-35.82-65.82-68.37c-1.81-5.02-2.13-8.04-9.39-5.42c-10.82,3.91-21.24,0.73-28.56-8.82
			c-9.82-12.82-14.23-26.8-7.54-42.64c3.66-8.66,7.74-16.82,19.84-16.06c-13.16-6.28-27.16-7.34-40.45-10.99
			c-6.83-1.87-13.5-4.53-20.43-5.79c-7.36-1.34-6.44-7.91-7.96-12.15c-1.79-5.02,4.26-5.62,7.53-6.96
			c26.73-10.93,53.55-21.64,82.45-33.27c-25.84-11.51-48.5-24.89-71.58-37.49c-13.51-7.37-23.86-17.57-33.11-29.4
			c-1.39-1.78-2.9-3.2-1-5.39c1.53-1.76,3.45-1.86,5.75-1.82c23.49,0.41,47.13,2.18,69.96-5.59c4.83-1.64,6.67,2.8,9.78,4.5
			c7.72,4.2,8.6,4.29,13.29-1.67c1.53-1.94,3.77-1.59,5.83-2c13.31-2.59,26.93-4.1,42.3-11.28c-14.78-1.9-26.32-5.11-38.65-3.22
			c0.3-6.65,5.77-5.53,9.32-8.81c-23.53-12.18-47.33-3.05-71.51-1.41c12.74,6.05,25.49,12.09,38.22,18.14
			c-2.06,3.89-4.5,3.25-6.28,2.71c-15.64-4.82-29.78-12.99-44.32-20.25c-3.29-1.64-3.95-5.14-2.06-8.32
			c1.97-3.31,5.89-5.79,8.98-3.79c8.24,5.36,16.8,2.23,24.91,1.49c10.94-0.99,21.82-1.89,33-1.29c-15.4-33.04-38.91-60.9-54.25-93.5
			c5.08,4.98,15.26,5.36,13.76,15.89c-0.33,2.34,3.23,5.28,5.08,7.89c10.87,15.36,21.59,30.79,30.31,47.53
			c7.21,13.83,19.1,24.17,28.2,36.62c0.7,0.96,2.55,1.38,3.91,1.49c18.57,1.57,36.93,6.77,55.79,0.31
			c18.14-6.22,37.16-8.89,56.32-9.99c2.24-0.13,4.92-1.16,7.66,2.86c-21.73,4.22-43.44,5.33-64.12,12.55
			c2.27,2.9,6.99,0.64,8.24,7.58c-29.26-8.74-53.57,9.31-82.67,11.99c9.98,6.59,19.85,7.75,29.26,9.34
			c10.47,1.77,21.23,1.89,31.87,2.67c1.77,0.13,4.16,0.75,5.24-0.12c10.66-8.57,19.87,5.09,30.25-0.47
			c-0.31,4.67-2.22,5.07-3.92,4.87c-19.35-2.19-34.1,6.94-47.78,19.01c-9.33,8.23-18.99,16.11-28.2,24.47
			c-2.29,2.08-6.01,3.29-3.27,9.11c2.96,6.29,6.62,3.09,9.2,2.45c28.3-7.03,55.26-17.35,79.99-33.19
			c8.57-5.48,16.45-12.38,26.33-15.47c3.69-1.15,2.14-5.05,4.73-6.34c2.62,1.52,1.99,4.12,2.18,6.46c0,3.89,0,7.79,0,11.68
			c12.06-21.48,32.31-28.07,55.71-31.19c-1.78,5.77-6.14,5.81-9.53,6.63c-16.89,4.09-30.81,11.99-39.62,27.78
			c-2.74,4.91-7.06,10.52-12.62,2.15c-1.66-2.5-3.37-1.53-3.72-0.06c-1.16,4.9-10.72,8.35-2.72,15.1c0.84,0.71,0.06,4.08-0.73,5.87
			c-12.96,29.43-9.86,57.92,4.72,85.81c0.17,4.19,4.07,5.8,6.04,8.74c2.84,2.98,1.58,4.6-1.86,3.87c-4.04-0.86-6.19-4.48-8.19-7.86
			c-16.9-28.53-19.01-58.39-8.05-89.84c-17.19,19.92-30.83,43.1-56.14,54.57c26.39-23.11,47.9-49.84,63.43-81.21
			c3.19-1.57,10.43,0.22,6.13-7.63c-3.07,1.48-6.04,3.08-8.13,5.92c-23.8,14.73-47.43,30.16-74.88,37.11
			c-30.99,7.85-59.33,20.52-84.71,40.03c-8.46,6.5-18.84,5.62-28.75,4.54c-4.91-0.54-8.4,0.15-10.15,5.35
			c7.76,4.44,16.68,5.25,25.18,6.95c13.21,2.64,26.52,4.94,39.14,9.59c4.28,1.58,7.8-1.2,10.96-0.03c2.95,1.1,6.26,4.62,5.69,8.18
			c-0.75,4.72-4.84,2.75-7.76,1.99c-4.12-1.06-8.17-2.38-12.25-3.58c-0.86-0.06-1.71-0.13-2.57-0.2
			C743.75,648.29,743.92,649.1,744.08,649.92z M668.18,513.28c5.65,6.75,10.83,12,17.34,15.74c22.08,12.72,43.96,25.78,67.07,36.61
			c8.18,3.84,16,9.31,21.28-3.79c1.06-2.64,4.64-4.25,7.03-6.37c12.86-11.4,25.85-22.65,39.93-33.18
			c-11.55-1.5-22.83-3.43-33.76-3.17c-17.21,0.41-32.72-3.4-47.5-11.47c-1.89-1.03-3.55-2.67-5.76-1.92
			C712.95,512.77,690.72,507.52,668.18,513.28z M1185.93,572.8c8.44-3.41,14.47-9.18,17.71-16.61c2.52-5.77-4.69-6.79-7.98-9.28
			c-4.48-3.4-9.62-5.91-14.39-8.94c-2.55-1.62-4.69-2.24-7.62-0.32c-5.9,3.87-12.15,7.2-18.23,10.79c-3.07,1.81-5.8,5.21-2.14,7.37
			C1163.85,562.07,1175.07,567.26,1185.93,572.8z M731,597.54c-10.7,4.47-21.39,8.93-33.73,14.08
			C713.26,615.16,722.79,607.58,731,597.54z"/>
		<path class="st1" d="M1044.82,476.43c-28.85-3.41-53.94-14.04-75.98-33.6c-10.29-9.13-24.8-13.67-38.29-18.27
			c-18.16-6.2-35.15-14.35-48.62-28.94c14.47,3.15,25.24,14.33,39.27,18.68c14.43,4.48,28.64,9.9,41.79,18.51
			c0-3.79,0.15-6.97-0.03-10.14c-0.74-13.09,0.08-13.8,13.63-13.31c6.63,0.24,12.32,2.99,18.07,5.75
			c15.07,7.22,29.26,15.99,43.01,25.41c3.02,2.07,10.01,3.68,7.19,8.32c-2.22,3.65-6.64-1.63-9.72-3.36
			c-13.61-7.61-27-15.61-40.5-23.43c-2.14-1.24-4.33-2.49-6.65-3.34c-6.54-2.39-16.45-7.11-19.17-1.16
			c-2.51,5.51-0.86,15.84,6.08,22.23c14.07,12.97,29.9,22.51,48.47,27.55C1030.88,469.37,1039.33,469.47,1044.82,476.43z"/>
		<path class="st0" d="M1059.32,622.41c0.6,28.28,0.23,54.05-20.48,73.79c-20.02,19.08-44.08,21.13-69.51,13.37
			c-12.35-3.77-23.46-10.11-32.98-18.93c-2.23-2.07-5.64-5.29-3.13-8.1c3.51-3.94,5.16,1.64,7.1,3.18
			c20.36,16.16,42.62,25.82,69,19.03c26.98-6.95,41.59-26.92,43.36-57.42C1053.39,635.21,1054.66,629.71,1059.32,622.41z"/>
		<path class="st1" d="M1062.47,550.02c6.13-22.19,11.81-42.72,17.94-64.93c3.77,10.44-10.89,64.73-19.29,75.27
			c-3-9.78-11.46-16.45-12.9-26.84c-1.34-9.65-3.29-19.22-5.17-29.99c-5.39,11.36-10.59,22.01-17.12,31.9
			c-5.18,7.85-11.48,14.46-19.75,19.02c-1.53,0.85-3.74,1.23-4.83-0.55c-1.28-2.09,0.71-2.85,2.22-3.84
			c22.83-15.02,30.9-39.6,40.58-63.09c0.91-2.2,0.39-6.06,3.27-5.85c3.71,0.27,3.01,4.06,2.73,6.81
			c-1.52,14.92-1.17,29.75,2.84,44.27C1054.64,538.16,1056.44,544.24,1062.47,550.02z"/>
		<path class="st1" d="M1048.42,375.95c-2.25,28.29,3.33,55.34,6.72,82.62c-14.58-32.87-14.71-67.68-15.13-102.5
			c16.02,7.42,41.91,77.56,33.77,94.4c-1.17-13.25-2.12-26.45-8.4-38.56C1059.28,400.16,1054.04,387.96,1048.42,375.95z"/>
		<path class="st0" d="M783.43,648.95c2.76,7.64,5.1,15.47,8.38,22.88c7.92,17.93,22.22,24.04,40.94,18.2
			c11.95-3.73,21.25-11.13,29.27-20.42c1.54-1.79,2.7-4.97,5.69-2.58c2.63,2.1,0.79,4.74-0.6,6.65
			c-11.78,16.24-27.76,25.85-47.8,25.72c-17.42-0.11-28.41-10.81-35.17-26.55c-6.04-14.05-8.45-28.51-7.21-43.65
			c0.28-3.44-0.29-7.38,4.15-8.92C782.97,629.74,778.89,639.7,783.43,648.95z"/>
		<path class="st0" d="M832.52,376.26c-23.91-1.15-46.46-10.09-70.16-12.05c-14.51-1.2-29.04-2.2-43.54-3.48
			c-2.78-0.24-7.6,1.85-7.62-3.01c-0.02-5.62,5.23-3.57,8.28-3.54c32.81,0.33,64.89,6.05,96.8,13.14c8.28,1.84,16.85,2.32,25.28,3.5
			c2.49,0.35,6.84-1.51,6.58,2.78c-0.21,3.54-4.46,2.44-7.11,2.62C838.21,376.41,835.36,376.26,832.52,376.26z"/>
		<path class="st0" d="M945.54,677.21c-0.96-0.64-2.54-1.14-3.02-2.15c-0.93-1.97,0.68-3.47,2.2-4.24
			c4.09-2.08,8.37-3.78,12.51-5.75c26.16-12.49,51.85-25.99,78.66-37.11c3.27-1.36,6.47-2.88,9.77-4.16
			c2.34-0.91,5.4-1.77,6.72,0.79c1.71,3.33-1.6,4.91-3.8,6.61c-0.28,0.21-0.61,0.37-0.94,0.5c-31.96,12.63-62.24,28.92-93.68,42.7
			C951.4,675.52,948.64,676.19,945.54,677.21z"/>
		<path class="st1" d="M783.43,648.95c-4.54-9.25-0.46-19.21-2.35-28.68c-0.25-6.78,1.33-9.79,8.93-6.04
			c26.28,12.97,52.79,25.48,79.21,38.18c1.59,0.76,3.13,1.64,4.65,2.54c2.13,1.27,4.9,2.68,3.06,5.6c-1.61,2.54-3.7,0.2-5.49-0.61
			c-19.58-8.98-39.19-17.92-58.73-26.99c-9.27-4.3-18.42-8.87-29.28-14.12C783.43,629.71,783.43,639.33,783.43,648.95z"/>
		<path class="st0" d="M770.45,397.34c37.59,4.96,67.82,21.57,92.14,49.14c1.7,1.92,5.93,4.04,3.46,6.69
			c-3.24,3.47-5.73-1.26-7.49-3.1c-17.67-18.52-37.87-33.06-62.53-40.78c-5.03-1.57-10.21-2.7-15.36-3.9
			C776.5,404.43,772.42,403.45,770.45,397.34z"/>
		<path class="st1" d="M896.49,659.71c-1.98-2.94-5.87-4.55-6.04-8.74c3.72,4.77,6,0.29,8.4-1.51
			c25.12-18.84,45.03-42.02,58.58-70.5c0.69-1.46,1.84-2.71,3.31-4.82c4.36,5.67,0.26,9.49-1.52,12.94
			c-14.3,27.61-34.11,50.5-59.87,68.04C897.43,656.43,895.58,656.98,896.49,659.71z"/>
		<path class="st1" d="M965.7,463.04c-35.21-3.92-81.67-31.61-85.82-59.23c11.76,16.61,23.4,29.39,38.9,38.05
			C933.8,450.25,950.21,455.67,965.7,463.04z"/>
		<path class="st0" d="M764.41,403.32c2.18,34.73,26.2,50.49,53.2,63.74c-6.9,3.62-9.8,2.68-25.21-8.16
			C767.8,441.6,759.75,426.57,764.41,403.32z"/>
		<path class="st1" d="M898.96,527.22c-0.19-2.33,0.44-4.94-2.18-6.46c7.98-21.46,21.38-37.1,45.11-41.19
			c6.68-1.15,12.92-0.16,16.89,8.04c-19.51-6.57-36.22,0.06-48.8,18.08C905.31,512.4,902.31,519.88,898.96,527.22z"/>
		<path class="st0" d="M999.47,470.77c-11.32,25.39-6.29,49.28,7.4,73.62C986.92,535.12,982.52,487.28,999.47,470.77z"/>
		<path class="st1" d="M872.84,754.43c3.02-7,4.95-12.54,7.7-17.65c6.3-11.7,13.9-12.53,23.35-2.88
			c5.52,5.64,8.89,12.29,10.04,21.11c-6.69-1.82-6.35-7.7-8.76-11.39c-3.33-5.1-6.65-11.05-13.21-10.9
			c-6.13,0.13-7.07,7.01-9.67,11.4C880.27,747.57,880.1,752.37,872.84,754.43z"/>
		<path class="st1" d="M1007.8,356.29c1.43,2.11,2.86,4.21,4.29,6.32c-0.8,12.7-5.18,24.98-4.34,37.9c0.18,2.72-0.53,6.69-3.85,6.58
			c-4.29-0.14-2.68-4.42-2.35-6.74c1.57-11.2,3.62-22.32,5.36-33.5C1007.44,363.37,1007.51,359.81,1007.8,356.29z"/>
		<path class="st1" d="M975.87,548.55c-0.1-1.68-0.31-3.31-1.99-4.25c2.61-7.54,5.35-14.99,15.35-20.47
			C984.01,533.48,979.94,541.02,975.87,548.55z"/>
		<path class="st1" d="M981.98,390.57c0.82-0.77,1.64-1.55,2.46-2.32c4.64,3.03,9.27,6.06,13.91,9.09
			C991.09,398.06,986.33,394.7,981.98,390.57z"/>
	</g>
</g>
</svg>
