<svg xmlns="http://www.w3.org/2000/svg" width="1280" height="511" viewBox="0 0 1280 511">
  <defs>
    <style>
      .cls-1 {
        fill: #fdfdfd;
        fill-rule: evenodd;
      }
    </style>
  </defs>
  <path id="Color_Fill_1" data-name="Color Fill 1" class="cls-1" d="M73,0c98.355-.97,248.88-13.082,312,23,58.738,33.577,77.082,117.757,31,180-9.849,13.3-23.354,19.325-37,29l1,2c93.62,15.737,106.139,142.9,51,210-59.085,71.9-226.1,54.347-356,54ZM966,0h111V497H966V0ZM206,102v92c52.341,1.129,119.393,1.893,106-60C303.824,96.216,252.378,101.076,206,102Zm478,8c35.729-.431,66.55,1.076,92,11,93.683,36.533,168.109,149.865,113,276-27.3,62.482-84.085,100.536-162,113C579.123,533.656,459.6,378.38,515,237c21.082-53.8,62.093-94.011,116-115C646.976,115.78,666.878,116.992,684,110Zm14,106-23,5c-27.384,10.695-48.294,33.673-57,63-17.813,60.006,34.679,130.3,95,120C824.621,384.942,820.552,214.4,698,216ZM207,291V396c58.408,1.057,140.6,5.51,129-61C327.149,284.239,266.454,290.051,207,291Zm991,79c102-2.469,107.18,122.867,25,140-52.68,10.982-99.06-40.349-80-94C1152.75,388.567,1172.08,381.821,1198,370Z"/>
</svg>
