<?xml version="1.0" standalone="no"?>
<!DOCTYPE svg PUBLIC "-//W3C//DTD SVG 20010904//EN"
 "http://www.w3.org/TR/2001/REC-SVG-20010904/DTD/svg10.dtd">
<svg version="1.0" xmlns="http://www.w3.org/2000/svg"
 width="321.000000pt" height="321.000000pt" viewBox="0 0 321.000000 321.000000"
 preserveAspectRatio="xMidYMid meet">
<metadata>
Created by potrace 1.14, written by Peter Selinger 2001-2017
</metadata>
<g transform="translate(0.000000,321.000000) scale(0.100000,-0.100000)"
fill="#000000" stroke="none">
<path d="M1000 2777 c0 -13 5 -50 11 -83 6 -32 16 -106 23 -164 10 -94 13
-105 31 -105 15 0 19 6 17 25 -8 85 -22 181 -31 220 -14 58 -14 60 3 60 61 0
334 -172 613 -387 34 -27 75 -56 92 -66 46 -27 48 -2 1 29 -22 15 -40 32 -40
40 0 7 -28 32 -61 56 -60 42 -62 45 -80 113 -10 39 -19 90 -19 114 l0 43 58
-53 c32 -30 95 -76 141 -102 l83 -48 -7 -37 c-21 -113 -31 -193 -23 -198 15
-10 28 7 28 38 0 46 21 161 32 175 5 7 7 20 5 30 -3 10 -2 38 2 63 l8 45 6
-40 c12 -66 31 -120 42 -115 6 3 9 12 7 20 -1 8 -5 74 -8 145 l-6 130 20 -20
c42 -40 179 -274 211 -358 31 -82 50 -103 67 -76 3 6 1 16 -5 22 -18 18 -12
40 19 76 27 31 77 71 91 71 10 0 43 -186 36 -203 -7 -20 -25 -23 -24 -4 1 48
-4 70 -14 60 -7 -7 -13 -23 -14 -37 -2 -14 -12 -38 -23 -53 -42 -60 -102 -193
-102 -228 0 -42 15 -47 23 -7 8 36 79 164 95 170 9 3 12 -17 12 -80 0 -116 -4
-126 -49 -130 -42 -4 -52 -32 -11 -33 20 0 25 -5 23 -22 -3 -24 22 -33 29 -11
8 22 72 -21 141 -91 34 -35 53 -61 42 -57 -11 4 -67 16 -125 26 -58 10 -118
23 -133 29 -36 14 -37 14 -37 -4 0 -16 103 -50 185 -60 28 -3 76 -13 108 -22
82 -23 92 -9 39 55 -52 61 -109 114 -161 146 -38 24 -39 27 -30 58 5 18 9 77
9 131 l0 97 53 33 c28 19 87 53 130 76 42 23 91 54 107 68 17 13 30 23 30 20
0 -21 -106 -220 -122 -228 -18 -10 -18 -12 -3 -29 13 -15 31 -17 119 -16 l103
2 -23 -50 c-13 -28 -24 -59 -24 -68 0 -10 -7 -18 -14 -18 -25 0 -175 50 -181
60 -9 15 -45 12 -45 -4 0 -39 145 -89 425 -147 87 -18 93 -23 49 -42 -235 -97
-494 -238 -494 -268 0 -33 36 -58 205 -143 94 -48 179 -93 190 -101 18 -14 18
-16 2 -33 -10 -9 -93 -60 -184 -113 -92 -52 -168 -100 -170 -105 -2 -6 15 -24
38 -40 l42 -29 -39 -6 c-21 -4 -39 -6 -39 -5 -1 0 -6 24 -13 51 -7 28 -21 61
-31 75 -26 37 -80 62 -118 55 -18 -3 -33 -4 -33 -1 0 3 15 34 34 68 39 73 52
108 38 108 -6 0 -39 -53 -73 -117 l-63 -118 -12 60 c-21 101 -26 206 -14 280
19 119 23 175 12 175 -12 0 -22 -24 -22 -53 -1 -31 -34 -102 -83 -175 -34 -51
-46 -62 -66 -60 -40 5 -61 45 -73 146 -11 87 -28 125 -28 65 0 -17 -11 -38
-25 -51 -14 -13 -59 -74 -100 -136 -74 -109 -106 -143 -125 -131 -19 12 -40
111 -40 187 0 85 25 179 62 231 27 37 13 50 -17 15 -70 -81 -96 -284 -53 -408
15 -43 29 -66 41 -68 32 -6 85 46 169 169 l83 122 7 -39 c15 -73 18 -81 42
-107 18 -19 35 -27 59 -27 34 0 49 14 110 103 10 14 12 -1 13 -80 1 -54 9
-132 18 -175 13 -57 15 -81 7 -96 -14 -27 -14 -32 4 -32 8 0 15 5 15 12 0 9 3
9 12 0 20 -20 29 -13 26 21 -2 21 1 31 9 30 7 -2 17 6 23 16 5 11 23 22 39 26
44 9 85 -16 105 -65 20 -49 22 -134 4 -128 -7 3 -14 13 -16 24 -6 36 -25 63
-51 72 -32 11 -71 -2 -71 -23 0 -18 5 -19 31 -4 16 8 25 7 40 -7 25 -23 24
-31 -5 -38 -29 -7 -41 -37 -26 -66 14 -26 46 -26 62 0 7 11 18 20 25 20 22 0
15 -28 -15 -61 -36 -41 -111 -53 -133 -21 -8 10 -28 22 -45 26 -29 6 -32 4
-50 -36 -110 -245 -320 -372 -676 -409 -232 -23 -472 32 -616 143 -88 68 -182
220 -182 293 0 30 -11 32 -27 6 -7 -11 -25 -22 -42 -26 -90 -20 -162 112 -115
211 18 39 30 41 73 17 41 -24 50 -9 16 27 l-29 31 43 -16 c57 -20 71 -19 71 4
0 23 -20 40 -45 39 -11 0 -56 9 -100 20 -44 11 -115 28 -159 37 -93 20 -90 38
7 39 59 1 70 5 136 49 109 72 191 114 260 132 152 39 294 103 419 187 46 31
72 43 72 34 0 -7 -8 -16 -19 -19 -10 -2 -33 -31 -50 -64 -45 -83 -148 -212
-209 -259 -28 -21 -53 -45 -56 -51 -9 -21 29 -15 55 8 13 12 36 31 50 43 31
27 149 174 149 187 0 5 4 9 9 9 6 0 3 -17 -6 -37 -24 -58 -28 -177 -9 -250 17
-68 46 -132 71 -157 21 -20 49 -21 41 -1 -3 9 15 30 53 60 33 24 84 73 114
108 61 69 137 191 137 219 0 33 -17 19 -45 -37 -36 -71 -142 -202 -202 -252
-88 -71 -79 -69 -103 -23 -52 102 -59 237 -18 349 16 40 17 55 8 61 -9 6 -8
15 5 40 15 29 19 31 27 17 15 -28 36 -19 75 32 42 54 81 80 161 106 52 17 69
35 33 35 -10 0 -48 -9 -83 -20 -63 -19 -101 -49 -141 -110 l-17 -24 0 29 c1
72 69 174 140 210 54 27 81 31 112 14 30 -16 36 0 8 23 -42 34 -126 11 -190
-53 -38 -39 -77 -98 -85 -132 -4 -13 -12 -24 -18 -24 -7 0 -50 -25 -97 -55
-96 -62 -168 -98 -285 -138 -96 -34 -161 -47 -151 -32 3 6 0 13 -6 15 -15 6
70 86 181 169 60 46 84 58 112 58 50 0 99 11 99 21 0 5 -16 9 -36 9 -23 0 -41
6 -49 16 -11 15 -14 15 -37 0 -30 -19 -110 -16 -238 11 -92 18 -105 28 -48 36
24 3 82 18 128 33 69 22 96 25 147 21 51 -5 63 -4 63 8 0 9 -10 15 -22 16 -41
2 58 27 173 45 60 9 108 21 107 26 -4 12 -4 12 -92 4 -40 -4 -120 -18 -177
-32 -81 -20 -118 -24 -169 -19 -109 10 -140 16 -140 29 0 18 -33 46 -53 46
-11 0 -14 5 -10 16 3 9 -3 23 -15 35 -12 10 -40 52 -63 91 -23 40 -66 107 -96
150 -29 42 -53 85 -53 95 0 19 -57 70 -67 60 -10 -11 12 -53 82 -156 39 -58
82 -126 95 -151 12 -25 36 -65 53 -89 l30 -44 -27 5 c-14 3 -70 1 -124 -4 -70
-7 -102 -7 -115 2 -15 9 -24 8 -43 -5 -13 -8 -24 -19 -24 -24 0 -17 39 -42
131 -85 88 -41 93 -45 69 -55 -30 -12 -274 -31 -313 -24 -32 6 -37 -16 -9 -46
9 -10 32 -35 51 -55 34 -37 221 -148 355 -212 53 -26 65 -35 50 -40 -10 -3
-30 -10 -44 -16 -14 -6 -97 -39 -185 -75 -88 -35 -163 -67 -167 -71 -3 -4 -4
-20 -1 -36 7 -36 39 -50 197 -84 101 -22 115 -27 93 -35 -54 -18 -89 -117 -68
-194 27 -98 114 -153 191 -119 12 5 20 -5 34 -43 20 -57 84 -152 130 -194 144
-132 365 -196 630 -184 176 8 348 52 481 121 80 41 192 154 240 241 21 39 40
72 42 74 1 2 12 -4 23 -14 10 -9 39 -20 63 -22 81 -9 160 53 173 139 5 29 10
33 38 34 48 1 96 23 96 45 0 9 -14 27 -31 40 -17 12 -27 25 -22 29 4 5 71 45
148 89 130 76 195 126 195 152 0 19 -55 61 -125 96 -38 20 -72 37 -74 39 -3 3
9 19 26 37 38 39 56 74 47 88 -3 6 -34 29 -67 50 l-60 39 124 59 c68 32 154
72 192 89 56 26 67 35 67 55 0 29 -4 31 -127 57 -139 29 -173 39 -173 53 0 7
16 45 35 86 19 40 32 77 29 82 -3 6 -45 7 -105 3 -65 -5 -99 -3 -99 3 0 6 27
66 59 134 70 146 80 176 57 185 -10 4 -35 -11 -71 -43 -42 -38 -196 -135 -257
-161 -3 -2 -3 9 1 25 7 28 -23 189 -40 207 -13 15 -70 -15 -121 -62 l-48 -45
-16 39 c-23 56 -166 281 -212 333 -41 48 -62 49 -62 2 0 -15 -4 -31 -10 -37
-5 -5 -17 -52 -26 -104 -8 -52 -17 -97 -19 -99 -11 -11 -167 93 -222 148 -60
61 -64 63 -78 45 -19 -25 -19 -130 0 -184 8 -23 15 -44 15 -47 0 -2 -25 15
-55 37 -147 109 -345 224 -445 258 -16 6 -30 16 -30 21 0 6 -7 11 -15 11 -9 0
-15 -9 -15 -23z m-282 -853 c27 -8 29 -20 2 -27 -32 -8 -25 -34 8 -30 15 2 54
0 87 -5 58 -8 59 -9 32 -20 -16 -7 -66 -19 -113 -29 -74 -14 -85 -19 -81 -35
6 -23 5 -23 -44 3 -34 17 -38 23 -28 35 6 8 10 16 7 19 -2 2 -44 22 -93 44
l-88 39 59 7 c32 3 68 8 79 10 25 4 142 -3 173 -11z m-133 -163 c14 -24 119
-51 217 -56 57 -3 115 -8 131 -11 27 -6 26 -6 -31 -48 -31 -23 -89 -73 -127
-110 l-70 -67 -65 29 c-163 71 -397 218 -378 237 3 3 67 9 142 14 75 4 139 11
143 15 9 9 31 7 38 -3z m2172 -218 c2 -5 -15 -26 -37 -48 l-40 -39 -80 39
c-53 26 -80 44 -78 54 2 8 27 29 57 47 l54 33 61 -39 c33 -21 62 -43 63 -47z
m-2217 -217 c-17 -21 -92 -56 -120 -56 -33 0 -20 9 57 41 81 33 78 33 63 15z"/>
<path d="M452 2464 c3 -17 16 -20 128 -26 69 -3 181 -18 249 -32 160 -34 256
-43 266 -26 11 18 -13 30 -61 30 -23 0 -108 14 -189 30 -90 19 -195 33 -272
37 -119 6 -125 5 -121 -13z"/>
<path d="M1988 2398 c4 -131 21 -278 38 -338 9 -30 18 -61 21 -69 3 -11 7 -11
15 -3 8 8 7 33 -5 94 -9 46 -19 110 -22 143 -3 33 -8 83 -10 110 -5 48 -4 49
10 25 43 -74 99 -220 104 -273 8 -77 26 -69 24 10 -1 54 -10 82 -64 200 -56
124 -91 183 -108 183 -4 0 -5 -37 -3 -82z"/>
<path d="M1240 2283 c1 -19 134 -95 230 -133 58 -23 115 -48 127 -56 12 -7 27
-14 34 -14 6 0 32 -18 57 -41 61 -53 158 -102 250 -124 112 -27 114 -1 2 30
-72 20 -185 77 -234 119 -31 27 -40 43 -46 80 -7 45 -6 46 21 46 38 0 100 -28
217 -99 55 -34 105 -61 112 -61 44 0 -52 72 -195 146 -64 34 -101 47 -131 47
-59 0 -64 -6 -57 -66 6 -51 5 -52 -13 -35 -11 9 -71 38 -134 63 -63 25 -136
59 -161 76 -44 28 -79 38 -79 22z"/>
<path d="M730 2272 c0 -16 23 -28 90 -46 95 -25 191 -80 269 -152 69 -64 91
-76 91 -50 0 21 -118 126 -191 169 -85 50 -259 103 -259 79z"/>
<path d="M689 2245 c-14 -13 9 -116 34 -154 55 -84 227 -191 227 -142 0 4 -19
16 -42 28 -104 50 -181 140 -192 222 -6 46 -14 60 -27 46z"/>
<path d="M1240 2231 c0 -49 109 -155 206 -201 70 -34 169 -70 191 -70 31 0 9
20 -39 35 -29 10 -92 38 -141 62 -68 35 -101 60 -152 115 -36 39 -65 65 -65
59z"/>
<path d="M1765 1896 c-24 -62 -17 -183 14 -253 13 -29 30 -53 37 -53 19 0 18
9 -6 57 -27 57 -41 151 -28 199 18 71 20 94 10 94 -6 0 -18 -20 -27 -44z"/>
<path d="M2010 1871 c0 -11 -23 -65 -51 -121 -52 -104 -105 -174 -140 -185
-26 -9 -24 -25 3 -25 33 0 108 85 150 170 37 73 38 74 38 38 0 -60 20 -135 46
-173 13 -20 24 -42 24 -50 0 -25 20 -17 31 13 11 27 89 306 89 317 0 3 -6 5
-14 5 -8 0 -18 -19 -25 -47 -29 -119 -66 -243 -72 -243 -4 0 -15 19 -25 43
-12 29 -19 77 -22 160 -3 91 -7 117 -18 117 -8 0 -14 -9 -14 -19z"/>
<path d="M781 1270 c-7 -4 -11 -11 -10 -16 1 -5 -3 -22 -10 -39 -28 -66 13
-226 76 -296 59 -65 145 -76 235 -29 54 27 118 88 118 112 0 25 -19 22 -41 -6
-29 -37 -110 -84 -156 -92 -50 -8 -102 8 -132 40 -36 38 -71 152 -69 224 0 34
5 62 9 62 4 0 63 -27 131 -59 177 -85 279 -131 289 -131 5 0 9 6 9 13 0 14
-46 39 -281 150 -86 41 -162 71 -168 67z"/>
<path d="M1915 1176 c-165 -73 -374 -176 -381 -188 -4 -5 -2 -14 4 -20 8 -8
323 129 485 211 34 18 38 18 33 3 -2 -9 -8 -46 -11 -82 -9 -87 -38 -151 -90
-199 -105 -97 -278 -89 -415 19 -64 51 -86 32 -27 -24 76 -72 215 -115 312
-97 162 30 249 142 257 331 2 68 0 84 -11 82 -7 -1 -18 2 -25 7 -8 7 -49 -7
-131 -43z"/>
<path d="M1263 718 c-20 -22 -53 -90 -53 -109 0 -21 30 6 43 40 31 76 67 74
109 -6 24 -44 38 -55 38 -28 0 40 -71 125 -104 125 -7 0 -22 -10 -33 -22z"/>
</g>
</svg>
